<svg xmlns="http://www.w3.org/2000/svg" xmlns:xlink="http://www.w3.org/1999/xlink" width="212" height="26" viewBox="0 0 212 26">
  <defs>
    <polygon id="bettergrocery-white-a" points="0 26 212 26 212 0 0 0"/>
  </defs>
  <g fill="none" fill-rule="evenodd">
    <mask id="bettergrocery-white-b" fill="#fff">
      <use xlink:href="#bettergrocery-white-a"/>
    </mask>
    <path fill="#FFF" d="M9.89329412 17.292259C9.89329412 18.3130787 9.50594118 19.1629803 8.83711765 19.6395049 8.87285294 19.4012426 8.90770588 19.1629803 8.90770588 18.8569475 8.90770588 16.8161607 8.37961765 15.2514721 6.68947059 14.7412754L6.68947059 13.5508164 6.93608824 13.5508164C9.04844118 13.5508164 9.89329412 14.6389803 9.89329412 17.292259L9.89329412 17.292259zM8.23844118 8.04009508C8.23844118 6.57770164 7.78094118 5.59140656 6.68947059 5.35314426L6.68947059 4.33275082 7.6755 4.33275082C8.90770588 4.33275082 9.25932353 5.08120984 9.25932353 6.40763607 9.25932353 7.56399672 9.22402941 8.27835738 8.23844118 8.51661967L8.23844118 8.04009508zM10.5625588 17.2581607C10.5625588 14.6730787 9.75255882 12.9042262 6.93608824 12.9042262L6.05594118 12.9042262 6.05594118 20.6253738 7.53432353 20.6253738C9.29505882 20.6253738 10.5625588 19.1629803 10.5625588 17.2581607L10.5625588 17.2581607zM6.05594118 9.29875082L6.26682353 9.29875082C9.36564706 9.29875082 9.89329412 8.72078361 9.89329412 6.47540656 9.89329412 4.74107869 9.29505882 3.68616066 7.6755 3.68616066L6.05594118 3.68616066 6.05594118 9.29875082zM14.7519706 17.2581607C14.7519706 21.0678 12.4282941 24.0612098 8.16829412 24.0612098L1.65476471 24.0612098 1.65476471.251177049 7.35873529.251177049C11.4427059.251177049 13.7659412 2.46202951 13.7659412 6.30576721 13.7659412 8.31245574 12.7097647 10.4892098 10.9847647 11.2035705 13.2378529 12.1557672 14.7519706 13.9591443 14.7519706 17.2581607L14.7519706 17.2581607zM8.16829412 24.7414721C9.11902941 24.7414721 9.96344118 24.5714066 10.7381471 24.2990459 9.64667647 25.1838984 8.27373529 25.6936689 6.54873529 25.6936689L-.0000882352941 25.6936689-.0000882352941 1.88363607.985941176.931013115.985941176 24.7414721 6.05594118 24.7414721 8.16829412 24.7414721zM22.8042668 14.5641292L25.0243372 14.5641292 25.0243372 13.5910675 22.8042668 13.5910675 22.8042668 14.5641292zM22.8042668 5.14407291L26.8153825 5.14407291 26.8153825 4.13616565 22.8042668 4.13616565 22.8042668 5.14407291zM29 20.8210816L29 24.3317698 17.6828915 24.3317698 17.6828915 0 28.4987227 0 28.4987227 3.51025263 22.1598315 3.51025263 22.1598315 9.45446626 26.6726733 9.45446626 26.6726733 12.9303089 22.1598315 12.9303089 22.1598315 20.8210816 29 20.8210816zM17.0030033 24.9925283L27.3166598 24.9925283 27.3166598 26 16 26 16 1.66823025 17.0030033 1.66823025 17.0030033 24.9925283zM40.1540484 5.11643433L42.3565545 5.11643433 42.3565545 4.14164696 40.1540484 4.14164696 40.1540484 5.11643433zM44 0L44 3.4804489 39.4898353 3.4804489 39.4898353 24.3640146 35.1189975 24.3640146 35.1189975 3.4804489 30.6434455 3.4804489 30.6434455 0 44 0zM34.4898353 25.0256488L37.8463898 25.0256488 37.8463898 26 33.4755521 26 33.4755521 5.11643433 29 5.11643433 29 1.63598544 29.9796705 1.63598544 29.9796705 4.14164696 34.4898353 4.14164696 34.4898353 25.0256488zM57.1540484 5.11643433L59.3565545 5.11643433 59.3565545 4.14164696 57.1540484 4.14164696 57.1540484 5.11643433zM61 0L61 3.4804489 56.4898353 3.4804489 56.4898353 24.3640146 52.1189975 24.3640146 52.1189975 3.4804489 47.6434455 3.4804489 47.6434455 0 61 0zM51.4898353 25.0256488L54.8463898 25.0256488 54.8463898 26 50.4755521 26 50.4755521 5.11643433 46 5.11643433 46 1.63598544 46.9796705 1.63598544 46.9796705 4.14164696 51.4898353 4.14164696 51.4898353 25.0256488zM68.8044807 14.5641292L71.0249232 14.5641292 71.0249232 13.5910675 68.8044807 13.5910675 68.8044807 14.5641292zM68.8044807 5.14407291L72.8154579 5.14407291 72.8154579 4.13616565 68.8044807 4.13616565 68.8044807 5.14407291zM75 20.8210816L75 24.3317698 63.6832821 24.3317698 63.6832821 0 74.49874 0 74.49874 3.51025263 68.1600677 3.51025263 68.1600677 9.45446626 72.6718561 9.45446626 72.6718561 12.9303089 68.1600677 12.9303089 68.1600677 20.8210816 75 20.8210816zM63.0025199 24.9925283L73.3171666 24.9925283 73.3171666 26 62 26 62 1.66823025 63.0025199 1.66823025 63.0025199 24.9925283zM88.9479692 25.0269383L89.3655234 26 84.8783405 26 81.6085156 18.3531462 81.6085156 15.2248878 81.9218993 15.2248878 86.0608298 25.0269383 88.9479692 25.0269383zM85.2610259 6.98653086C85.2610259 9.10688199 85.0522488 9.83689607 84.2171402 10.0803793 84.2868779 9.69794947 84.2868779 9.21098305 84.2868779 8.62035114 84.2868779 6.67379213 83.8697595 5.14450848 82.1302405 5.14450848L81.6085156 5.14450848 81.6085156 4.13616565 83.765153 4.13616565C84.530088 4.13616565 85.2610259 4.51859546 85.2610259 6.98653086L85.2610259 6.98653086zM82.3390177 10.8448033C85.1219864 10.8448033 85.9222262 10.5325002 85.9222262 6.95212089 85.9222262 5.00512632 85.469803 3.5106882 83.765153 3.5106882L80.9830559 3.5106882 80.9830559 10.8448033 82.3390177 10.8448033zM82.3390177 14.5641292C81.7131221 14.5641292 81.1565284 14.5292837 80.9830559 14.5292837L80.9830559 24.3317698 76.6344766 24.3317698 76.6344766 0 83.9046283 0C88.0784276 0 90.0611567 3.05856731 90.0611567 6.95212089 90.0611567 10.5669101 88.4955461 12.8958989 86.4090822 13.9386517L91 24.3317698 86.478384 24.3317698 82.3390177 14.5641292zM75.9737122 24.9925283L79.3477076 24.9925283 79.3477076 26 75 26 75 1.66823025 75.9737122 1.66823025 75.9737122 24.9925283zM107.239516 8.7914281L107.239516 6.99231147C107.239516 6.27946998 106.569292 5.12556846 105.464283 5.02391624 105.598579 4.61645673 106.033784 4.03929331 106.904194 4.03929331 107.741869 4.03929331 108.177074 4.9898904 108.177074 5.39734991L108.177074 7.84083102 111.459366 7.84083102 111.459366 8.7914281 107.239516 8.7914281zM107.708295 19.5172256L107.708295 15.9194176 105.397134 15.9194176 105.397134 12.5249141 106.301957 12.5249141 106.301957 14.9683952 108.646272 14.9683952 108.646272 17.9218387C108.646272 19.1773924 108.310951 19.9242598 107.641146 20.2300671 107.67472 20.025912 107.708295 19.7545559 107.708295 19.5172256L107.708295 19.5172256zM113 7.16201538L108.77973 7.16201538 108.77973 5.36289874C108.77973 4.65048258 108.109925 3.39450352 106.904194 3.39450352 105.430289 3.39450352 104.760904 4.65048258 104.760904 5.36289874L104.760904 19.0081139C104.760904 19.72053 105.430289 20.9765091 106.904194 20.9765091 108.445247 20.9765091 109.248509 19.8226076 109.248509 17.8878129L109.248509 14.2900049 106.904194 14.2900049 106.904194 10.8955014 113 10.8955014 113 18.2272207C113 21.4179944 111.09089 24.3705873 106.904194 24.3705873 102.249138 24.3705873 100.541053 21.4856208 100.541053 19.0421397L100.541053 5.32887289C100.541053 2.88539179 102.249138 0 106.904194 0 111.09089 0 113 2.88539179 113 5.32887289L113 7.16201538zM106.904194 25.0158024C107.842172 25.0158024 108.713001 24.879699 109.416379 24.6423687 108.445247 25.4568624 107.072065 26 105.330406 26 100.674511 26 99 23.0810077 99 20.6371013L99 6.95828562C99 5.83840995 99.3353218 4.61645673 100.172577 3.6318338 100.0387 4.20942254 99.9383974 4.78616064 99.9383974 5.36289874L99.9383974 19.0757402C99.9383974 22.0287584 102.081687 25.0158024 106.904194 25.0158024L106.904194 25.0158024zM129.948405 25.0269383L130.365523 26 125.87834 26 122.608516 18.3531462 122.608516 15.2248878 122.921899 15.2248878 127.06083 25.0269383 129.948405 25.0269383zM126.261462 6.98653086C126.261462 9.10688199 126.052249 9.83689607 125.217576 10.0803793 125.28775 9.69794947 125.28775 9.21098305 125.28775 8.62035114 125.28775 6.67379213 124.869759 5.14450848 123.130241 5.14450848L122.608516 5.14450848 122.608516 4.13616565 124.765589 4.13616565C125.53096 4.13616565 126.261462 4.51859546 126.261462 6.98653086L126.261462 6.98653086zM123.339018 10.8448033C126.121986 10.8448033 126.922226 10.5325002 126.922226 6.95212089 126.922226 5.00512632 126.470239 3.5106882 124.765589 3.5106882L121.983056 3.5106882 121.983056 10.8448033 123.339018 10.8448033zM123.339018 14.5641292C122.713122 14.5641292 122.156528 14.5292837 121.983056 14.5292837L121.983056 24.3317698 117.634912 24.3317698 117.634912 0 124.904628 0C129.078428 0 131.061157 3.05856731 131.061157 6.95212089 131.061157 10.5669101 129.496418 12.8958989 127.409082 13.9386517L132 24.3317698 127.47882 24.3317698 123.339018 14.5641292zM116.973712 24.9925283L120.348144 24.9925283 120.348144 26 116 26 116 1.66823025 116.973712 1.66823025 116.973712 24.9925283zM142.175941 5.36289874L142.175941 19.0076885C142.175941 19.3470964 141.83819 20.1279895 141.231589 20.331294L141.231589 6.95828562C141.231589 6.24544414 140.590749 5.12514314 139.476886 4.98946507 139.612579 4.61603141 140.050938 4.03929331 140.893837 4.03929331 141.737583 4.03929331 142.175941 4.95543923 142.175941 5.36289874L142.175941 5.36289874zM142.783387 5.32887289C142.783387 4.61603141 142.108306 3.39407819 140.893837 3.39407819 139.410097 3.39407819 138.802651 4.61603141 138.802651 5.29527237L138.802651 18.9736627C138.802651 19.7545559 139.410097 20.9765091 140.893837 20.9765091 142.108306 20.9765091 142.783387 19.6865042 142.783387 18.9736627L142.783387 5.32887289zM147 5.32887289L147 19.0417144C147 21.451595 145.110873 24.3701619 140.893837 24.3701619 136.238866 24.3701619 134.586038 21.451595 134.586038 19.0753149L134.586038 5.32887289C134.586038 2.91899231 136.238866 0 140.893837 0 145.110873 0 147 2.91899231 147 5.32887289L147 5.32887289zM140.893837 25.0494029C141.872007 25.0494029 142.74957 24.879699 143.558652 24.6419434 142.580483 25.4564371 141.163532 26 139.342462 26 134.652828 26 133 23.0805824 133 20.6707018L133 6.95828562C133 5.80395878 133.337752 4.58200556 134.180652 3.59823327 134.046227 4.17497137 133.944352 4.78616064 133.944352 5.36289874L133.944352 19.0753149C133.944352 22.0287584 136.070624 25.0494029 140.893837 25.0494029L140.893837 25.0494029zM158.220049 18.8043841L159.155392 17.853787 159.155392 19.0421397C159.155392 19.3811222 158.854776 20.0939637 158.220049 20.3317193L158.220049 18.8043841zM162.42993 8.7914281L158.220049 8.7914281 158.220049 6.99231147C158.220049 6.27946998 157.618398 5.12556846 156.482505 5.02391624 156.649142 4.61645673 157.050661 4.07331916 157.885519 4.07331916 158.721215 4.07331916 159.155392 4.9898904 159.155392 5.39734991L159.155392 7.84083102 163.365273 7.84083102 162.42993 8.7914281zM164 7.16201538L159.790119 7.16201538 159.790119 5.36289874C159.790119 4.65048258 159.088402 3.39450352 157.885519 3.39450352 156.415097 3.39450352 155.814283 4.65048258 155.814283 5.36289874L155.814283 19.0081139C155.814283 19.72053 156.415097 20.9765091 157.885519 20.9765091 159.088402 20.9765091 159.790119 19.72053 159.790119 19.0081139L159.790119 17.2089972 164 17.2089972 164 19.0421397C164 21.4856208 162.0954 24.3705873 157.885519 24.3705873 153.241462 24.3705873 151.570907 21.4856208 151.570907 19.0421397L151.570907 5.32887289C151.570907 2.88539179 153.241462 0 157.885519 0 162.0954 0 164 2.88539179 164 5.32887289L164 7.16201538zM157.885519 25.0498282C158.888271 25.0498282 159.790119 24.879699 160.52533 24.6083429 159.556074 25.4232619 158.153059 26 156.315449 26 151.670554 26 150 23.0810077 150 20.6371013L150 6.95828562C150 5.83840995 150.368024 4.65048258 151.236378 3.66585964 151.036246 4.20942254 150.935762 4.78616064 150.935762 5.36289874L150.935762 19.0757402C150.935762 22.0287584 153.073988 25.0498282 157.885519 25.0498282L157.885519 25.0498282zM172.804032 14.5641292L175.024026 14.5641292 175.024026 13.5910675 172.804032 13.5910675 172.804032 14.5641292zM172.804032 5.14407291L176.815009 5.14407291 176.815009 4.13616565 172.804032 4.13616565 172.804032 5.14407291zM179 20.8210816L179 24.3317698 167.682833 24.3317698 167.682833 0 178.498291 0 178.498291 3.51025263 172.15917 3.51025263 172.15917 9.45446626 176.671856 9.45446626 176.671856 12.9303089 172.15917 12.9303089 172.15917 20.8210816 179 20.8210816zM167.00252 24.9925283L177.316269 24.9925283 177.316269 26 166 26 166 1.66823025 167.00252 1.66823025 167.00252 24.9925283zM193.947533 25.0269383L194.365523 26 189.87834 26 186.608516 18.3531462 186.608516 15.2248878 186.921899 15.2248878 191.06083 25.0269383 193.947533 25.0269383zM190.26059 6.98653086C190.26059 9.10688199 190.051813 9.83689607 189.216704 10.0803793 189.286878 9.69794947 189.286878 9.21098305 189.286878 8.62035114 189.286878 6.67379213 188.869759 5.14450848 187.130241 5.14450848L186.608516 5.14450848 186.608516 4.13616565 188.764717 4.13616565C189.530088 4.13616565 190.26059 4.51859546 190.26059 6.98653086L190.26059 6.98653086zM187.339018 10.8448033C190.121986 10.8448033 190.921354 10.5325002 190.921354 6.95212089 190.921354 5.00512632 190.469367 3.5106882 188.764717 3.5106882L185.982184 3.5106882 185.982184 10.8448033 187.339018 10.8448033zM187.339018 14.5641292C186.71225 14.5641292 186.156528 14.5292837 185.982184 14.5292837L185.982184 24.3317698 181.634477 24.3317698 181.634477 0 188.904628 0C193.078428 0 195.061157 3.05856731 195.061157 6.95212089 195.061157 10.5669101 193.495546 12.8958989 191.409082 13.9386517L196 24.3317698 191.477948 24.3317698 187.339018 14.5641292zM180.973712 24.9925283L184.347708 24.9925283 184.347708 26 180 26 180 1.66823025 180.973712 1.66823025 180.973712 24.9925283zM205.3008 9.17657308L205.006361 8.02928366 206.444566 1.66823025 207.000273 1.66823025 205.3008 9.17657308zM212 0L207.196429 14.8768679 207.196429 24.3317698 203.274946 24.3317698 203.274946 14.8768679 198.502908 0 202.523083 0 205.3008 11.713764 207.981053 0 212 0zM202.654127 25.0269383L205.692703 25.0269383 205.692703 26 201.738459 26 201.738459 16.5455337 197 1.66823025 198.405444 1.66823025 202.654127 15.0158145 202.654127 25.0269383z" mask="url(#bettergrocery-white-b)"/>
  </g>
</svg>
