<svg xmlns="http://www.w3.org/2000/svg" xmlns:xlink="http://www.w3.org/1999/xlink" width="301" height="37" viewBox="0 0 301 37">
  <defs>
    <polygon id="bettergrocery-logo2-a" points="0 .357 20.653 .357 20.653 36.564 0 36.564"/>
    <polygon id="bettergrocery-logo2-c" points="0 37 301 37 301 0 0 0"/>
  </defs>
  <g fill="none" fill-rule="evenodd">
    <mask id="bettergrocery-logo2-b" fill="#fff">
      <use xlink:href="#bettergrocery-logo2-a"/>
    </mask>
    <path fill="#231F20" d="M13.8506118,24.6082148 C13.8506118,26.0609197 13.3083176,27.2703951 12.3719647,27.9485262 C12.4219941,27.6094607 12.4707882,27.2703951 12.4707882,26.8348869 C12.4707882,23.9306902 11.7314647,21.704018 9.36525882,20.9779689 L9.36525882,19.2838541 L9.71052353,19.2838541 C12.6678176,19.2838541 13.8506118,20.8323951 13.8506118,24.6082148 L13.8506118,24.6082148 Z M11.5338176,11.4416738 C11.5338176,9.36057541 10.8933176,7.95700164 9.36525882,7.61793607 L9.36525882,6.1658377 L10.7457,6.1658377 C12.4707882,6.1658377 12.9630529,7.23095246 12.9630529,9.11855902 C12.9630529,10.7641492 12.9136412,11.7807393 11.5338176,12.1198049 L11.5338176,11.4416738 Z M14.7875824,24.5596902 C14.7875824,20.8809197 13.6535824,18.3637066 9.71052353,18.3637066 L8.47831765,18.3637066 L8.47831765,29.3514934 L10.5480529,29.3514934 C13.0130824,29.3514934 14.7875824,27.2703951 14.7875824,24.5596902 L14.7875824,24.5596902 Z M8.47831765,13.2328377 L8.77355294,13.2328377 C13.1119059,13.2328377 13.8506118,12.4103459 13.8506118,9.21500164 C13.8506118,6.74691967 13.0130824,5.24569016 10.7457,5.24569016 L8.47831765,5.24569016 L8.47831765,13.2328377 Z M20.6527588,24.5596902 C20.6527588,29.9811 17.3996118,34.2409525 11.4356118,34.2409525 L2.31667059,34.2409525 L2.31667059,0.357444262 L10.3022294,0.357444262 C16.0197882,0.357444262 19.2723176,3.50365738 19.2723176,8.9735918 C19.2723176,11.8292639 17.7936706,14.9269525 15.3786706,15.9435426 C18.5329941,17.2985918 20.6527588,19.8649361 20.6527588,24.5596902 L20.6527588,24.5596902 Z M11.4356118,35.209018 C12.7666412,35.209018 13.9488176,34.9670016 15.0334059,34.5794115 C13.5053471,35.8386246 11.5832294,36.5640672 9.16822941,36.5640672 L-0.000123529412,36.5640672 L-0.000123529412,2.68055902 L1.38031765,1.32490328 L1.38031765,35.209018 L8.47831765,35.209018 L11.4356118,35.209018 Z" mask="url(#bettergrocery-logo2-b)"/>
    <mask id="bettergrocery-logo2-d" fill="#fff">
      <use xlink:href="#bettergrocery-logo2-c"/>
    </mask>
    <path fill="#231F20" d="M32.4212925 20.7258762L35.4952361 20.7258762 35.4952361 19.3411345 32.4212925 19.3411345 32.4212925 20.7258762zM32.4212925 7.32041145L37.975145 7.32041145 37.975145 5.88608189 32.4212925 5.88608189 32.4212925 7.32041145zM41 29.6300007L41 34.62598 25.3301574 34.62598 25.3301574 0 40.3059238 0 40.3059238 4.99535951 31.5289975 4.99535951 31.5289975 13.4544328 37.7775476 13.4544328 37.7775476 18.4008242 31.5289975 18.4008242 31.5289975 29.6300007 41 29.6300007zM24.3887738 35.5662903L38.6692212 35.5662903 38.6692212 37 23 37 23 2.37401997 24.3887738 2.37401997 24.3887738 35.5662903zM57.6156677 7.28107963L60.6991763 7.28107963 60.6991763 5.89388221 57.6156677 5.89388221 57.6156677 7.28107963zM63 0L63 4.9529465 56.6857694 4.9529465 56.6857694 34.6718669 50.5665966 34.6718669 50.5665966 4.9529465 44.3008237 4.9529465 44.3008237 0 63 0zM49.6857694 35.6134232L54.3849457 35.6134232 54.3849457 37 48.2657729 37 48.2657729 7.28107963 42 7.28107963 42 2.32813313 43.3715387 2.32813313 43.3715387 5.89388221 49.6857694 5.89388221 49.6857694 35.6134232zM80.6156677 7.28107963L83.6991763 7.28107963 83.6991763 5.89388221 80.6156677 5.89388221 80.6156677 7.28107963zM86 0L86 4.9529465 79.6857694 4.9529465 79.6857694 34.6718669 73.5665966 34.6718669 73.5665966 4.9529465 67.3008237 4.9529465 67.3008237 0 86 0zM72.6857694 35.6134232L77.3849457 35.6134232 77.3849457 37 71.2657729 37 71.2657729 7.28107963 65 7.28107963 65 2.32813313 66.3715387 2.32813313 66.3715387 5.89388221 72.6857694 5.89388221 72.6857694 35.6134232zM97.4215886 20.7258762L100.496047 20.7258762 100.496047 19.3411345 97.4215886 19.3411345 97.4215886 20.7258762zM97.4215886 7.32041145L102.975249 7.32041145 102.975249 5.88608189 97.4215886 5.88608189 97.4215886 7.32041145zM106 29.6300007L106 34.62598 90.3306983 34.62598 90.3306983 0 105.305948 0 105.305948 4.99535951 96.5293245 4.99535951 96.5293245 13.4544328 102.776416 13.4544328 102.776416 18.4008242 96.5293245 18.4008242 96.5293245 29.6300007 106 29.6300007zM89.3881045 35.5662903L103.669923 35.5662903 103.669923 37 88 37 88 2.37401997 89.3881045 2.37401997 89.3881045 35.5662903zM127.050206 35.6152583L127.65044 37 121.200114 37 116.499741 26.1179388 116.499741 21.6661864 116.95023 21.6661864 122.899943 35.6152583 127.050206 35.6152583zM121.750225 9.94237084C121.750225 12.9597936 121.450108 13.9986598 120.249639 14.3451551 120.349887 13.8009281 120.349887 13.1079374 120.349887 12.2674228 120.349887 9.49731957 119.750279 7.32103129 117.249721 7.32103129L116.499741 7.32103129 116.499741 5.88608189 119.599907 5.88608189C120.699501 5.88608189 121.750225 6.43030892 121.750225 9.94237084L121.750225 9.94237084zM117.549838 15.4329893C121.550355 15.4329893 122.7007 14.9885579 122.7007 9.8934028 122.7007 7.12267976 122.050342 4.99597936 119.599907 4.99597936L115.600643 4.99597936 115.600643 15.4329893 117.549838 15.4329893zM117.549838 20.7258762C116.650113 20.7258762 115.85001 20.6762883 115.600643 20.6762883L115.600643 34.62598 109.34956 34.62598 109.34956 0 119.800403 0C125.80024 0 128.650413 4.35257656 128.650413 9.8934028 128.650413 15.037526 126.399847 18.3518562 123.400556 19.8357736L130 34.62598 123.500177 34.62598 117.549838 20.7258762zM108.399711 35.5662903L113.24983 35.5662903 113.24983 37 107 37 107 2.37401997 108.399711 2.37401997 108.399711 35.5662903z" mask="url(#bettergrocery-logo2-d)"/>
    <path fill="#1F632B" d="M152.770737 12.5108785L152.770737 9.95059709C152.770737 8.93616882 151.813274 7.29407819 150.234689 7.14941927 150.426542 6.56957304 151.048263 5.74822509 152.291705 5.74822509 153.488384 5.74822509 154.110105 7.10099787 154.110105 7.6808441L154.110105 11.1581057 158.799095 11.1581057 158.799095 12.5108785 152.770737 12.5108785zM153.440421 27.7745133L153.440421 22.6545559 150.138763 22.6545559 150.138763 17.8239162 151.431368 17.8239162 151.431368 21.3011778 154.780389 21.3011778 154.780389 25.5041551C154.780389 27.2909046 154.301358 28.3537543 153.344495 28.7889416 153.392458 28.4984132 153.440421 28.1122526 153.440421 27.7745133L153.440421 27.7745133zM161 10.1920988L154.971042 10.1920988 154.971042 7.63181744C154.971042 6.61799444 154.014179 4.83063962 152.291705 4.83063962 150.186127 4.83063962 149.229863 6.61799444 149.229863 7.63181744L149.229863 27.0500082C149.229863 28.0638312 150.186127 29.851186 152.291705 29.851186 154.49321 29.851186 155.640727 28.2090954 155.640727 25.4557337L155.640727 20.3357762 152.291705 20.3357762 152.291705 15.5051366 161 15.5051366 161 25.9387371C161 30.4794536 158.2727 34.6812204 152.291705 34.6812204 145.641626 34.6812204 143.201505 30.5756912 143.201505 27.0984296L143.201505 7.58339604C143.201505 4.10613447 145.641626 0 152.291705 0 158.2727 0 161 4.10613447 161 7.58339604L161 10.1920988zM152.291705 35.5994111C153.631674 35.5994111 154.875716 35.4057255 155.880542 35.0679863 154.49321 36.2270735 152.531521 37 150.043437 37 143.392158 37 141 32.8460494 141 29.3681826L141 9.90217569C141 8.30850646 141.479031 6.56957304 142.67511 5.16837886 142.483857 5.99033208 142.340568 6.81107476 142.340568 7.63181744L142.340568 27.1462457C142.340568 31.3486177 145.40241 35.5994111 152.291705 35.5994111L152.291705 35.5994111zM185.050832 35.6152583L185.65044 37 179.200114 37 174.499741 26.1179388 174.499741 21.6661864 174.95023 21.6661864 180.899943 35.6152583 185.050832 35.6152583zM179.750851 9.94237084C179.750851 12.9597936 179.450108 13.9986598 178.250266 14.3451551 178.35114 13.8009281 178.35114 13.1079374 178.35114 12.2674228 178.35114 9.49731957 177.750279 7.32103129 175.249721 7.32103129L174.499741 7.32103129 174.499741 5.88608189 177.600534 5.88608189C178.700755 5.88608189 179.750851 6.43030892 179.750851 9.94237084L179.750851 9.94237084zM175.549838 15.4329893C179.550355 15.4329893 180.7007 14.9885579 180.7007 9.8934028 180.7007 7.12267976 180.050968 4.99597936 177.600534 4.99597936L173.600643 4.99597936 173.600643 15.4329893 175.549838 15.4329893zM175.549838 20.7258762C174.650113 20.7258762 173.85001 20.6762883 173.600643 20.6762883L173.600643 34.62598 167.350187 34.62598 167.350187 0 177.800403 0C183.80024 0 186.650413 4.35257656 186.650413 9.8934028 186.650413 15.037526 184.401101 18.3518562 181.400556 19.8357736L188 34.62598 181.500804 34.62598 175.549838 20.7258762zM166.399711 35.5662903L171.250456 35.5662903 171.250456 37 165 37 165 2.37401997 166.399711 2.37401997 166.399711 35.5662903zM202.108488 7.63181744L202.108488 27.0494029C202.108488 27.5324063 201.625985 28.6436774 200.759413 28.9329953L200.759413 9.90217569C200.759413 8.88774742 199.843926 7.29347293 198.252695 7.10039261 198.446541 6.56896777 199.072768 5.74822509 200.276911 5.74822509 201.482261 5.74822509 202.108488 7.05197121 202.108488 7.63181744L202.108488 7.63181744zM202.976267 7.58339604C202.976267 6.56896777 202.011866 4.83003435 200.276911 4.83003435 198.157281 4.83003435 197.289501 6.56896777 197.289501 7.53557991L197.289501 27.0009815C197.289501 28.1122526 198.157281 29.851186 200.276911 29.851186 202.011866 29.851186 202.976267 28.0154098 202.976267 27.0009815L202.976267 7.58339604zM209 7.58339604L209 27.0978243C209 30.5272698 206.301247 34.6806151 200.276911 34.6806151 193.626951 34.6806151 191.265769 30.5272698 191.265769 27.1456404L191.265769 7.58339604C191.265769 4.1539506 193.626951 0 200.276911 0 206.301247 0 209 4.1539506 209 7.58339604L209 7.58339604zM200.276911 35.6472272C201.674296 35.6472272 202.927957 35.4057255 204.083789 35.067381 202.686404 36.2264682 200.662188 37 198.06066 37 191.361182 37 189 32.8454441 189 29.4159987L189 9.90217569C189 8.2594798 189.482502 6.52054638 190.686645 5.12056274 190.49461 5.94130541 190.349075 6.81107476 190.349075 7.63181744L190.349075 27.1456404C190.349075 31.3486177 193.386606 35.6472272 200.276911 35.6472272L200.276911 35.6472272zM224.742927 26.7600851L226.079132 25.4073123 226.079132 27.0984296C226.079132 27.5808277 225.64968 28.595256 224.742927 28.9336005L224.742927 26.7600851zM230.757043 12.5108785L224.742927 12.5108785 224.742927 9.95059709C224.742927 8.93616882 223.883426 7.29407819 222.260721 7.14941927 222.498774 6.56957304 223.072373 5.79664649 224.265028 5.79664649 225.458879 5.79664649 226.079132 7.10099787 226.079132 7.6808441L226.079132 11.1581057 232.093247 11.1581057 230.757043 12.5108785zM233 10.1920988L226.985884 10.1920988 226.985884 7.63181744C226.985884 6.61799444 225.983432 4.83063962 224.265028 4.83063962 222.164424 4.83063962 221.306119 6.61799444 221.306119 7.63181744L221.306119 27.0500082C221.306119 28.0638312 222.164424 29.851186 224.265028 29.851186 225.983432 29.851186 226.985884 28.0638312 226.985884 27.0500082L226.985884 24.4897268 233 24.4897268 233 27.0984296C233 30.5756912 230.279143 34.6812204 224.265028 34.6812204 217.63066 34.6812204 215.244153 30.5756912 215.244153 27.0984296L215.244153 7.58339604C215.244153 4.10613447 217.63066 0 224.265028 0 230.279143 0 233 4.10613447 233 7.58339604L233 10.1920988zM224.265028 35.6478325C225.69753 35.6478325 226.985884 35.4057255 228.036186 35.0195649 226.651534 36.1792573 224.647228 37 222.022071 37 215.386506 37 213 32.8460494 213 29.3681826L213 9.90217569C213 8.30850646 213.525749 6.61799444 214.766254 5.21680026 214.480352 5.99033208 214.336802 6.81107476 214.336802 7.63181744L214.336802 27.1462457C214.336802 31.3486177 217.391411 35.6478325 224.265028 35.6478325L224.265028 35.6478325zM245.420967 20.7258762L248.494805 20.7258762 248.494805 19.3411345 245.420967 19.3411345 245.420967 20.7258762zM245.420967 7.32041145L250.974628 7.32041145 250.974628 5.88608189 245.420967 5.88608189 245.420967 7.32041145zM254 29.6300007L254 34.62598 238.330077 34.62598 238.330077 0 253.305326 0 253.305326 4.99535951 244.528082 4.99535951 244.528082 13.4544328 250.776416 13.4544328 250.776416 18.4008242 244.528082 18.4008242 244.528082 29.6300007 254 29.6300007zM237.388105 35.5662903L251.66868 35.5662903 251.66868 37 236 37 236 2.37401997 237.388105 2.37401997 237.388105 35.5662903zM276.049579 35.6152583L276.65044 37 270.200114 37 265.499741 26.1179388 265.499741 21.6661864 265.95023 21.6661864 271.899943 35.6152583 276.049579 35.6152583zM270.749598 9.94237084C270.749598 12.9597936 270.449481 13.9986598 269.249013 14.3451551 269.349887 13.8009281 269.349887 13.1079374 269.349887 12.2674228 269.349887 9.49731957 268.750279 7.32103129 266.249721 7.32103129L265.499741 7.32103129 265.499741 5.88608189 268.599281 5.88608189C269.699501 5.88608189 270.749598 6.43030892 270.749598 9.94237084L270.749598 9.94237084zM266.549838 15.4329893C270.550355 15.4329893 271.699447 14.9885579 271.699447 9.8934028 271.699447 7.12267976 271.049715 4.99597936 268.599281 4.99597936L264.59939 4.99597936 264.59939 15.4329893 266.549838 15.4329893zM266.549838 20.7258762C265.64886 20.7258762 264.85001 20.6762883 264.59939 20.6762883L264.59939 34.62598 258.34956 34.62598 258.34956 0 268.800403 0C274.80024 0 277.650413 4.35257656 277.650413 9.8934028 277.650413 15.037526 275.399847 18.3518562 272.400556 19.8357736L279 34.62598 272.499551 34.62598 266.549838 20.7258762zM257.399711 35.5662903L262.24983 35.5662903 262.24983 37 256 37 256 2.37401997 257.399711 2.37401997 257.399711 35.5662903zM291.174507 13.0589694L290.742663 11.4262883 292.85203 2.37401997 293.667067 2.37401997 291.174507 13.0589694zM301 0L293.954763 21.1709274 293.954763 34.62598 288.203254 34.62598 288.203254 21.1709274 281.204264 0 287.100521 0 291.174507 16.6695872 295.105545 0 301 0zM287.292719 35.6152583L291.749297 35.6152583 291.749297 37 285.949739 37 285.949739 23.5455672 279 2.37401997 281.061318 2.37401997 287.292719 21.3686591 287.292719 35.6152583z" mask="url(#bettergrocery-logo2-d)"/>
  </g>
</svg>
