<?xml version="1.0" encoding="UTF-8" standalone="no"?>
<svg width="160px" height="11px" viewBox="0 0 160 11" version="1.1" xmlns="http://www.w3.org/2000/svg" xmlns:xlink="http://www.w3.org/1999/xlink">
  <title>Emperience Manager</title>
  <defs></defs>
  <g id="General-design" stroke="none" stroke-width="1" fill="none" fill-rule="evenodd">
    <g id="Artboard" transform="translate(-59.000000, -50.000000)" fill="#999999">
      <g id="Imported-Layers" transform="translate(59.000000, 50.000000)">
        <path d="M0.6794,0.630537598 L6.7414,0.630537598 L6.7414,1.4705376 L1.6034,1.4705376 L1.6034,4.9985376 L6.4194,4.9985376 L6.4194,5.8385376 L1.6034,5.8385376 L1.6034,9.7025376 L6.9654,9.7025376 L6.9654,10.5425376 L0.6794,10.5425376 L0.6794,0.630537598 Z M11.3614,5.3345376 L7.9734,0.630537598 L9.0654,0.630537598 L11.9214,4.6625376 L14.7354,0.630537598 L15.8414,0.630537598 L12.4814,5.3345376 L16.1634,10.5425376 L15.0154,10.5425376 L11.8794,6.0625376 L8.7434,10.5425376 L7.6374,10.5425376 L11.3614,5.3345376 Z M17.5354,0.630537598 L20.3914,0.630537598 C20.7367351,0.630537598 21.0983981,0.670203868 21.4764,0.749537598 C21.8544019,0.828871328 22.1997318,0.966536618 22.5124,1.1625376 C22.8250682,1.35853858 23.0817323,1.62686923 23.2824,1.9675376 C23.4830677,2.30820597 23.5834,2.7352017 23.5834,3.2485376 C23.5834,3.69653984 23.5017342,4.0838693 23.3384,4.4105376 C23.1750659,4.7372059 22.9557347,5.00553655 22.6804,5.2155376 C22.4050653,5.42553865 22.0877351,5.58187042 21.7284,5.6845376 C21.3690649,5.78720478 20.993402,5.8385376 20.6014,5.8385376 L18.4594,5.8385376 L18.4594,10.5425376 L17.5354,10.5425376 L17.5354,0.630537598 Z M18.4594,4.9985376 L20.5594,4.9985376 C20.8207346,4.9985376 21.0773987,4.96820457 21.3294,4.9075376 C21.5814013,4.84687063 21.805399,4.74887161 22.0014,4.6135376 C22.197401,4.47820359 22.3560661,4.29853872 22.4774,4.0745376 C22.5987339,3.85053648 22.6594,3.5752059 22.6594,3.2485376 C22.6594,2.93120268 22.5964006,2.66053872 22.4704,2.4365376 C22.3443994,2.21253648 22.1810677,2.02820499 21.9804,1.8835376 C21.7797323,1.73887021 21.5487346,1.63387126 21.2874,1.5685376 C21.0260654,1.50320394 20.7647346,1.4705376 20.5034,1.4705376 L18.4594,1.4705376 L18.4594,4.9985376 Z M25.5714,0.630537598 L31.6334,0.630537598 L31.6334,1.4705376 L26.4954,1.4705376 L26.4954,4.9985376 L31.3114,4.9985376 L31.3114,5.8385376 L26.4954,5.8385376 L26.4954,9.7025376 L31.8574,9.7025376 L31.8574,10.5425376 L25.5714,10.5425376 L25.5714,0.630537598 Z M34.7974,4.9985376 L36.7574,4.9985376 C37.2427358,4.9985376 37.6370652,4.93787154 37.9404,4.8165376 C38.2437349,4.69520366 38.4793992,4.54587182 38.6474,4.3685376 C38.8154008,4.19120338 38.929733,3.99987196 38.9904,3.7945376 C39.051067,3.58920324 39.0814,3.40253844 39.0814,3.2345376 C39.0814,3.06653676 39.051067,2.87987196 38.9904,2.6745376 C38.929733,2.46920324 38.8154008,2.27787182 38.6474,2.1005376 C38.4793992,1.92320338 38.2437349,1.77387154 37.9404,1.6525376 C37.6370652,1.53120366 37.2427358,1.4705376 36.7574,1.4705376 L34.7974,1.4705376 L34.7974,4.9985376 Z M33.8734,0.630537598 L36.4774,0.630537598 C36.6080673,0.630537598 36.7853989,0.635204218 37.0094,0.644537598 C37.2334011,0.653870978 37.4760654,0.681870698 37.7374,0.728537598 C37.9987346,0.775204498 38.264732,0.849870418 38.5354,0.952537598 C38.806068,1.05520478 39.0487323,1.20453662 39.2634,1.4005376 C39.4780677,1.59653858 39.6553993,1.84386944 39.7954,2.1425376 C39.9354007,2.44120576 40.0054,2.80520212 40.0054,3.2345376 C40.0054,3.71053998 39.9237342,4.10253606 39.7604,4.4105376 C39.5970659,4.71853914 39.3917346,4.96820331 39.1444,5.1595376 C38.8970654,5.35087189 38.6240682,5.4932038 38.3254,5.5865376 C38.0267318,5.6798714 37.742068,5.74520408 37.4714,5.7825376 L40.3554,10.5425376 L39.3054,10.5425376 L36.5194,5.8385376 L34.7974,5.8385376 L34.7974,10.5425376 L33.8734,10.5425376 L33.8734,0.630537598 Z M42.1754,0.630537598 L43.0994,0.630537598 L43.0994,10.5425376 L42.1754,10.5425376 L42.1754,0.630537598 Z M45.8154,0.630537598 L51.8774,0.630537598 L51.8774,1.4705376 L46.7394,1.4705376 L46.7394,4.9985376 L51.5554,4.9985376 L51.5554,5.8385376 L46.7394,5.8385376 L46.7394,9.7025376 L52.1014,9.7025376 L52.1014,10.5425376 L45.8154,10.5425376 L45.8154,0.630537598 Z M54.1174,0.630537598 L55.3074,0.630537598 L61.3414,9.3105376 L61.3694,9.3105376 L61.3694,0.630537598 L62.2934,0.630537598 L62.2934,10.5425376 L61.1034,10.5425376 L55.0694,1.8625376 L55.0414,1.8625376 L55.0414,10.5425376 L54.1174,10.5425376 L54.1174,0.630537598 Z M73.1714,8.9885376 C72.6953976,9.63254082 72.1447365,10.0945362 71.5194,10.3745376 C70.8940635,10.654539 70.2174036,10.7945376 69.4894,10.7945376 C68.7333962,10.7945376 68.0404032,10.6662055 67.4104,10.4095376 C66.7803969,10.1528696 66.2414022,9.79353991 65.7934,9.3315376 C65.3453978,8.86953529 64.9954013,8.31887413 64.7434,7.6795376 C64.4913987,7.04020107 64.3654,6.34254138 64.3654,5.5865376 C64.3654,4.83053382 64.4913987,4.13520744 64.7434,3.5005376 C64.9954013,2.86586776 65.3453978,2.31753991 65.7934,1.8555376 C66.2414022,1.39353529 66.7803969,1.03187224 67.4104,0.770537598 C68.0404032,0.509202958 68.7333962,0.378537598 69.4894,0.378537598 C70.1614034,0.378537598 70.7890638,0.497536408 71.3724,0.735537598 C71.9557363,0.973538788 72.4667311,1.3725348 72.9054,1.9325376 L72.1494,2.5625376 C71.8413985,2.0958686 71.4470691,1.75520534 70.9664,1.5405376 C70.4857309,1.32586986 69.9934025,1.2185376 69.4894,1.2185376 C68.8453968,1.2185376 68.2644026,1.33053648 67.7464,1.5545376 C67.2283974,1.77853872 66.7874018,2.08653564 66.4234,2.4785376 C66.0593982,2.87053956 65.779401,3.33253494 65.5834,3.8645376 C65.387399,4.39654026 65.2894,4.97053452 65.2894,5.5865376 C65.2894,6.20254068 65.387399,6.77653494 65.5834,7.3085376 C65.779401,7.84054026 66.0593982,8.30253564 66.4234,8.6945376 C66.7874018,9.08653956 67.2283974,9.39453648 67.7464,9.6185376 C68.2644026,9.84253872 68.8453968,9.9545376 69.4894,9.9545376 C69.7414013,9.9545376 70.002732,9.92420457 70.2734,9.8635376 C70.544068,9.80287063 70.8077321,9.70953823 71.0644,9.5835376 C71.321068,9.45753697 71.5660655,9.29887189 71.7994,9.1075376 C72.0327345,8.91620331 72.2380658,8.68520562 72.4154,8.4145376 L73.1714,8.9885376 Z M74.8654,0.630537598 L80.9274,0.630537598 L80.9274,1.4705376 L75.7894,1.4705376 L75.7894,4.9985376 L80.6054,4.9985376 L80.6054,5.8385376 L75.7894,5.8385376 L75.7894,9.7025376 L81.1514,9.7025376 L81.1514,10.5425376 L74.8654,10.5425376 L74.8654,0.630537598 Z M86.4574,0.630537598 L89.7614,0.630537598 L92.0434,7.0985376 L92.0714,7.0985376 L94.3674,0.630537598 L97.6574,0.630537598 L97.6574,10.5425376 L95.4734,10.5425376 L95.4734,2.9405376 L95.4454,2.9405376 L92.8414,10.5425376 L91.1754,10.5425376 L88.6694,2.9405376 L88.6414,2.9405376 L88.6414,10.5425376 L86.4574,10.5425376 L86.4574,0.630537598 Z M102.9354,0.630537598 L104.7414,0.630537598 L109.0534,10.5425376 L106.5894,10.5425376 L105.7354,8.4425376 L101.8854,8.4425376 L101.0594,10.5425376 L98.6514,10.5425376 L102.9354,0.630537598 Z M103.7754,3.5145376 L102.5714,6.5945376 L104.9934,6.5945376 L103.7754,3.5145376 Z M110.0474,0.630537598 L113.0154,0.630537598 L117.2294,7.5185376 L117.2574,7.5185376 L117.2574,0.630537598 L119.4414,0.630537598 L119.4414,10.5425376 L116.5854,10.5425376 L112.2594,3.4865376 L112.2314,3.4865376 L112.2314,10.5425376 L110.0474,10.5425376 L110.0474,0.630537598 Z M124.7194,0.630537598 L126.5254,0.630537598 L130.8374,10.5425376 L128.3734,10.5425376 L127.5194,8.4425376 L123.6694,8.4425376 L122.8434,10.5425376 L120.4354,10.5425376 L124.7194,0.630537598 Z M125.5594,3.5145376 L124.3554,6.5945376 L126.7774,6.5945376 L125.5594,3.5145376 Z M140.8054,9.8425376 C140.161397,10.1785393 139.489404,10.4212035 138.7894,10.5705376 C138.089397,10.7198717 137.375404,10.7945376 136.6474,10.7945376 C135.872729,10.7945376 135.158737,10.6732055 134.5054,10.4305376 C133.852063,10.1878697 133.287402,9.84020653 132.8114,9.3875376 C132.335398,8.93486867 131.964401,8.38654082 131.6984,7.7425376 C131.432399,7.09853438 131.2994,6.3798749 131.2994,5.5865376 C131.2994,4.7932003 131.432399,4.07454082 131.6984,3.4305376 C131.964401,2.78653438 132.335398,2.23820653 132.8114,1.7855376 C133.287402,1.33286867 133.852063,0.985205478 134.5054,0.742537598 C135.158737,0.499869718 135.872729,0.378537598 136.6474,0.378537598 C137.440737,0.378537598 138.171063,0.474203308 138.8384,0.665537598 C139.505737,0.856871888 140.091397,1.1858686 140.5954,1.6525376 L139.0554,3.3325376 C138.756732,3.02453606 138.420735,2.79120506 138.0474,2.6325376 C137.674065,2.47387014 137.207403,2.3945376 136.6474,2.3945376 C136.180731,2.3945376 135.758402,2.47387014 135.3804,2.6325376 C135.002398,2.79120506 134.678068,3.01286951 134.4074,3.2975376 C134.136732,3.58220569 133.929067,3.92053564 133.7844,4.3125376 C133.639733,4.70453956 133.5674,5.12920198 133.5674,5.5865376 C133.5674,6.0532066 133.639733,6.48020233 133.7844,6.8675376 C133.929067,7.25487287 134.136732,7.59086951 134.4074,7.8755376 C134.678068,8.16020569 135.002398,8.38187014 135.3804,8.5405376 C135.758402,8.69920506 136.180731,8.7785376 136.6474,8.7785376 C137.123402,8.7785376 137.534065,8.72487147 137.8794,8.6175376 C138.224735,8.51020373 138.500066,8.40053816 138.7054,8.2885376 L138.7054,6.6785376 L136.9274,6.6785376 L136.9274,4.6625376 L140.8054,4.6625376 L140.8054,9.8425376 Z M142.8074,0.630537598 L149.5414,0.630537598 L149.5414,2.6465376 L144.9914,2.6465376 L144.9914,4.4945376 L149.2894,4.4945376 L149.2894,6.5105376 L144.9914,6.5105376 L144.9914,8.5265376 L149.7934,8.5265376 L149.7934,10.5425376 L142.8074,10.5425376 L142.8074,0.630537598 Z M151.5434,0.630537598 L155.3794,0.630537598 C155.883403,0.630537598 156.361731,0.679537108 156.8144,0.777537598 C157.267069,0.875538088 157.663732,1.03886979 158.0044,1.2675376 C158.345068,1.49620541 158.615732,1.80420233 158.8164,2.1915376 C159.017068,2.57887287 159.1174,3.06186804 159.1174,3.6405376 C159.1174,4.3405411 158.935402,4.93553515 158.5714,5.4255376 C158.207398,5.91554005 157.675404,6.22587028 156.9754,6.3565376 L159.4954,10.5425376 L156.8774,10.5425376 L154.8054,6.5805376 L153.7274,6.5805376 L153.7274,10.5425376 L151.5434,10.5425376 L151.5434,0.630537598 Z M153.7274,4.7325376 L155.0154,4.7325376 C155.211401,4.7325376 155.419066,4.72553767 155.6384,4.7115376 C155.857734,4.69753753 156.056066,4.65553795 156.2334,4.5855376 C156.410734,4.51553725 156.557733,4.40587168 156.6744,4.2565376 C156.791067,4.10720352 156.8494,3.89720562 156.8494,3.6265376 C156.8494,3.37453634 156.798067,3.17387168 156.6954,3.0245376 C156.592733,2.87520352 156.462067,2.76087133 156.3034,2.6815376 C156.144733,2.60220387 155.962734,2.54853774 155.7574,2.5205376 C155.552066,2.49253746 155.351401,2.4785376 155.1554,2.4785376 L153.7274,2.4785376 L153.7274,4.7325376 Z" id="EXPERIENCE-MANAGER"></path>
      </g>
    </g>
  </g>
</svg>