<?xml version="1.0" encoding="utf-8"?>
<!-- Generator: Adobe Illustrator 18.1.1, SVG Export Plug-In . SVG Version: 6.00 Build 0)  -->
<!DOCTYPE svg PUBLIC "-//W3C//DTD SVG 1.1//EN" "http://www.w3.org/Graphics/SVG/1.1/DTD/svg11.dtd">
<svg version="1.1" id="Better_Retail" xmlns="http://www.w3.org/2000/svg" xmlns:xlink="http://www.w3.org/1999/xlink" x="0px"
	 y="0px" viewBox="0 0 138 80" enable-background="new 0 0 138 80" xml:space="preserve">
<g>
	<path d="M137.3,0.4c-0.2-0.4-0.7-0.5-1.1-0.3l-21.3,12.3l0.8,1.4L137,1.5C137.4,1.3,137.5,0.8,137.3,0.4z"/>
	<path d="M0.4,78.5c-0.4,0.2-0.5,0.7-0.3,1.1C0.3,79.9,0.5,80,0.8,80c0.1,0,0.3,0,0.4-0.1l26-15l-0.8-1.4L0.4,78.5z"/>
	<path d="M23.8,35.6c0-2.3-1.5-4.3-3.7-4.8c1.6-0.5,3-2,3-4.4c0-3.5-2.5-5.4-6.8-5.4H9.6v20.4H17C21.2,41.3,23.8,39.3,23.8,35.6z
		 M12.2,23.2h4.2c2.7,0,4.2,1,4.2,3.3s-1.5,3.3-4.2,3.3h-4.2V23.2z M12.2,32H17c2.8,0,4.2,1.4,4.2,3.5c0,2.1-1.5,3.5-4.2,3.5h-4.8
		V32z"/>
	<polygon points="43,39 32.6,39 32.6,32 42.1,32 42.1,29.7 32.6,29.7 32.6,23.2 43,23.2 43,20.9 30,20.9 30,41.3 43,41.3 	"/>
	<polygon points="65.1,20.9 48.2,20.9 48.2,23.2 55.4,23.2 55.4,41.3 58,41.3 58,23.2 65.1,23.2 	"/>
	<polygon points="69.6,23.2 76.7,23.2 76.7,41.3 79.3,41.3 79.3,23.2 86.5,23.2 86.5,20.9 69.6,20.9 	"/>
	<polygon points="92.4,41.3 105.4,41.3 105.4,39 95,39 95,32 104.4,32 104.4,29.7 95,29.7 95,23.2 105.4,23.2 105.4,20.9 92.4,20.9 
			"/>
	<path d="M126.3,26.8c0-3.9-2.7-5.9-6.8-5.9H112v20.4h2.6v-8.7h3.6l5.9,8.7h3l-6.1-8.8C124.3,32.1,126.3,30.2,126.3,26.8z
		 M114.6,30.5v-7.3h4.8c2.7,0,4.3,1.4,4.3,3.6s-1.6,3.6-4.3,3.6H114.6z"/>
	<path d="M46,52.1c0-2.2-1.5-3.4-3.9-3.4h-4.3v11.7h1.5v-4.9h2.1l3.3,4.9h1.7l-3.5-5C44.8,55.1,46,54,46,52.1z M39.3,54.1V50H42
		c1.5,0,2.4,0.8,2.4,2.1s-0.9,2.1-2.4,2.1H39.3z"/>
	<polygon points="49.7,60.3 57.1,60.3 57.1,59 51.2,59 51.2,55 56.6,55 56.6,53.7 51.2,53.7 51.2,50 57.1,50 57.1,48.7 49.7,48.7 	
		"/>
	<polygon points="60.1,50 64.2,50 64.2,60.3 65.7,60.3 65.7,50 69.8,50 69.8,48.7 60.1,48.7 	"/>
	<path d="M75.7,48.7l-4.6,11.7h1.5l1.3-3.5h4.8l1.3,3.5h1.5l-4.6-11.7H75.7z M74.4,55.5l1.9-5l1.9,5H74.4z"/>
	<rect x="84.8" y="48.7" width="1.5" height="11.7"/>
	<polygon points="92,48.7 90.5,48.7 90.5,60.3 98,60.3 98,59 92,59 	"/>
</g>
</svg>
