<?xml version="1.0" encoding="utf-8"?>
<!-- Generator: Adobe Illustrator 24.0.0, SVG Export Plug-In . SVG Version: 6.00 Build 0)  -->
<svg version="1.1" id="Layer_1" xmlns="http://www.w3.org/2000/svg" xmlns:xlink="http://www.w3.org/1999/xlink" x="0px" y="0px"
	 viewBox="0 0 20 20" style="enable-background:new 0 0 20 20;" xml:space="preserve">
<path d="M10,0c0.9,0,1.8,0.1,2.6,0.4c0.9,0.2,1.7,0.6,2.4,1s1.4,1,2,1.6s1.1,1.3,1.6,2c0.4,0.7,0.8,1.5,1,2.4C19.9,8.2,20,9.1,20,10
	c0,0.1,0,0.3,0,0.4l-0.1,0.8c0,0.2,0,0.3-0.1,0.5h-2.5c0-0.1,0-0.3,0.1-0.5c0-0.2,0.1-0.4,0.1-0.4c0-0.1,0-0.2,0-0.3
	c0-0.2,0-0.3,0-0.4c0-0.7-0.1-1.3-0.3-2c-0.2-0.6-0.4-1.2-0.8-1.8c-0.3-0.6-0.7-1.1-1.2-1.5c-0.5-0.5-1-0.8-1.5-1.2
	c-0.6-0.3-1.2-0.6-1.8-0.8c-0.6-0.2-1.3-0.3-2-0.3s-1.3,0.1-2,0.3S6.7,3.2,6.2,3.5s-1,0.7-1.5,1.2s-0.8,1-1.2,1.5
	C3.2,6.7,2.9,7.3,2.8,8s-0.3,1.3-0.3,2s0.1,1.3,0.3,2s0.4,1.3,0.8,1.8c0.3,0.5,0.7,1,1.2,1.5s0.9,0.9,1.5,1.2
	C6.8,16.8,7.4,17,8,17.2s1.3,0.3,2,0.3c0.8,0,1.5-0.1,2.1-0.3c0.6-0.2,1.2-0.5,1.9-0.9l-1.3-1.8c-0.1-0.1-0.1-0.2-0.1-0.2
	c0-0.1,0.1-0.1,0.2-0.1h5.7c0.1,0,0.2,0,0.2,0.1s0.1,0.2,0,0.3L16.9,20c0,0.1-0.1,0.2-0.2,0.2s-0.1,0-0.2-0.1l-1.2-1.7l0,0
	c-0.8,0.5-1.7,0.9-2.7,1.2c-1,0.3-1.9,0.4-2.8,0.4c-1,0-1.9-0.1-2.8-0.4c-0.9-0.2-1.7-0.6-2.4-1s-1.4-0.9-2-1.6
	c-0.6-0.6-1.1-1.3-1.5-2s-0.7-1.5-0.9-2.4C0.1,11.8,0,10.9,0,10s0.1-1.8,0.4-2.7c0.2-0.9,0.6-1.7,1-2.4s0.9-1.4,1.6-2s1.3-1.1,2-1.6
	s1.5-0.8,2.4-1S9.1,0,10,0z M13.8,5.7l0.6,0.6c0.1,0.1,0.1,0.2,0.1,0.3s0,0.2-0.1,0.3l-2.7,2.7c0,0.1,0,0.3,0,0.4
	c0,0.5-0.2,0.9-0.5,1.2s-0.7,0.5-1.2,0.5c-0.3,0-0.6-0.1-0.8-0.3c-0.3-0.2-0.5-0.4-0.6-0.6H6.3c-0.1,0-0.2,0-0.3-0.1
	c-0.1-0.1-0.1-0.2-0.1-0.3V9.6c0-0.1,0-0.2,0.1-0.3c0-0.1,0.1-0.1,0.3-0.1h2.3C8.8,9,9,8.8,9.2,8.6C9.4,8.4,9.7,8.3,10,8.3
	c0.1,0,0.3,0,0.5,0.1l2.7-2.7c0.1-0.1,0.2-0.1,0.3-0.1S13.7,5.6,13.8,5.7z"/>
</svg>
