<svg width="882" height="116" viewBox="0 0 882 116" fill="none" xmlns="http://www.w3.org/2000/svg">
<path d="M83.8116 85.5892C83.8116 89.6649 83.0104 93.4793 81.4078 97.0324C79.8053 100.481 77.6152 103.512 74.8375 106.124C72.0598 108.737 68.8014 110.775 65.0622 112.238C61.323 113.701 57.3701 114.432 53.2035 114.432H0V3.13513H53.0433C56.9962 3.13513 60.5751 3.97117 63.7801 5.64324C66.9852 7.31531 69.7095 9.50991 71.953 12.227C74.1965 14.8396 75.9059 17.8703 77.081 21.3189C78.363 24.6631 79.0041 28.0595 79.0041 31.5081C79.0041 37.1513 77.5618 42.3243 74.6773 47.027C71.7927 51.7297 67.7864 55.1784 62.6584 57.373C69.1753 59.2541 74.3033 62.8072 78.0426 68.0324C81.8886 73.1532 83.8116 79.0054 83.8116 85.5892ZM75.6388 84.4919C75.6388 81.5658 75.1046 78.7441 74.0363 76.027C72.9679 73.2054 71.4722 70.7495 69.5492 68.6595C67.6262 66.4649 65.3292 64.7405 62.6584 63.4865C60.0944 62.2324 57.3167 61.6054 54.3253 61.6054H8.17283V107.222H53.2035C56.4086 107.222 59.3465 106.595 62.0174 105.341C64.7951 104.086 67.1454 102.414 69.0685 100.324C71.0983 98.1297 72.7008 95.6739 73.876 92.9568C75.0512 90.2396 75.6388 87.418 75.6388 84.4919ZM8.17283 10.3459V54.8649H49.8383C52.9365 54.8649 55.7676 54.2378 58.3316 52.9838C60.8956 51.7297 63.0857 50.1099 64.9019 48.1243C66.8249 46.0342 68.3206 43.6306 69.389 40.9135C70.4573 38.1964 70.9915 35.427 70.9915 32.6054C70.9915 29.5748 70.4573 26.7532 69.389 24.1405C68.4274 21.4234 67.0386 19.0721 65.2224 17.0865C63.5131 14.9964 61.4298 13.3766 58.9726 12.227C56.5154 10.973 53.7911 10.3459 50.7998 10.3459H8.17283Z" fill="black"/>
<path d="M139.425 116C133.549 116 128.101 114.903 123.08 112.708C118.058 110.409 113.678 107.326 109.939 103.459C106.307 99.4883 103.422 94.9423 101.285 89.8216C99.2554 84.7009 98.2405 79.2144 98.2405 73.3622C98.2405 67.6144 99.2554 62.2324 101.285 57.2162C103.422 52.0955 106.307 47.654 109.939 43.8919C113.571 40.0252 117.898 36.9946 122.919 34.8C127.94 32.6054 133.336 31.5081 139.105 31.5081C144.981 31.5081 150.376 32.6577 155.29 34.9568C160.311 37.1513 164.638 40.182 168.27 44.0486C171.903 47.8108 174.734 52.2523 176.764 57.373C178.901 62.3892 179.969 67.7189 179.969 73.3622C179.969 73.8847 179.915 74.564 179.809 75.4C179.809 76.1315 179.809 76.6018 179.809 76.8108H106.574C106.894 81.5135 108.016 85.9027 109.939 89.9784C111.862 93.9496 114.266 97.3982 117.15 100.324C120.142 103.25 123.56 105.55 127.406 107.222C131.252 108.894 135.365 109.73 139.746 109.73C142.63 109.73 145.461 109.364 148.239 108.632C151.124 107.796 153.741 106.699 156.091 105.341C158.549 103.982 160.685 102.362 162.501 100.481C164.424 98.4955 165.92 96.3532 166.988 94.0541L174.04 95.9351C172.758 98.8613 170.941 101.578 168.591 104.086C166.347 106.49 163.677 108.58 160.578 110.357C157.587 112.133 154.275 113.492 150.643 114.432C147.01 115.477 143.271 116 139.425 116ZM172.117 70.5405C171.796 65.7333 170.674 61.3441 168.751 57.373C166.935 53.4018 164.531 50.0054 161.54 47.1838C158.655 44.2577 155.29 42.0108 151.444 40.4432C147.598 38.7712 143.485 37.9351 139.105 37.9351C134.724 37.9351 130.611 38.7712 126.765 40.4432C122.919 42.0108 119.501 44.2577 116.509 47.1838C113.625 50.0054 111.274 53.4541 109.458 57.5297C107.749 61.5009 106.734 65.8378 106.413 70.5405H172.117Z" fill="black"/>
<path d="M234.15 110.514C233.723 110.723 232.975 111.141 231.907 111.768C230.945 112.29 229.663 112.813 228.061 113.335C226.565 113.858 224.856 114.328 222.933 114.746C221.01 115.164 218.926 115.373 216.683 115.373C214.439 115.373 212.303 115.059 210.273 114.432C208.35 113.805 206.64 112.865 205.145 111.611C203.649 110.357 202.42 108.841 201.459 107.065C200.604 105.288 200.177 103.198 200.177 100.795V39.3459H188.478V32.9189H200.177V5.01622H208.189V32.9189H227.74V39.3459H208.189V98.9135C208.189 101.944 209.258 104.243 211.394 105.811C213.531 107.274 215.988 108.005 218.766 108.005C222.078 108.005 224.909 107.483 227.259 106.438C229.717 105.288 231.212 104.557 231.746 104.243L234.15 110.514Z" fill="black"/>
<path d="M285.011 110.514C284.584 110.723 283.836 111.141 282.768 111.768C281.806 112.29 280.524 112.813 278.922 113.335C277.426 113.858 275.717 114.328 273.794 114.746C271.871 115.164 269.787 115.373 267.544 115.373C265.3 115.373 263.164 115.059 261.134 114.432C259.211 113.805 257.501 112.865 256.006 111.611C254.51 110.357 253.281 108.841 252.32 107.065C251.465 105.288 251.038 103.198 251.038 100.795V39.3459H239.34V32.9189H251.038V5.01622H259.051V32.9189H278.601V39.3459H259.051V98.9135C259.051 101.944 260.119 104.243 262.256 105.811C264.392 107.274 266.849 108.005 269.627 108.005C272.939 108.005 275.77 107.483 278.12 106.438C280.578 105.288 282.073 104.557 282.608 104.243L285.011 110.514Z" fill="black"/>
<path d="M334.106 116C328.23 116 322.781 114.903 317.76 112.708C312.739 110.409 308.359 107.326 304.62 103.459C300.987 99.4883 298.103 94.9423 295.966 89.8216C293.936 84.7009 292.921 79.2144 292.921 73.3622C292.921 67.6144 293.936 62.2324 295.966 57.2162C298.103 52.0955 300.987 47.654 304.62 43.8919C308.252 40.0252 312.579 36.9946 317.6 34.8C322.621 32.6054 328.016 31.5081 333.785 31.5081C339.661 31.5081 345.056 32.6577 349.971 34.9568C354.992 37.1513 359.319 40.182 362.951 44.0486C366.584 47.8108 369.415 52.2523 371.445 57.373C373.581 62.3892 374.65 67.7189 374.65 73.3622C374.65 73.8847 374.596 74.564 374.489 75.4C374.489 76.1315 374.489 76.6018 374.489 76.8108H301.254C301.575 81.5135 302.697 85.9027 304.62 89.9784C306.543 93.9496 308.946 97.3982 311.831 100.324C314.822 103.25 318.241 105.55 322.087 107.222C325.933 108.894 330.046 109.73 334.426 109.73C337.311 109.73 340.142 109.364 342.92 108.632C345.804 107.796 348.422 106.699 350.772 105.341C353.229 103.982 355.366 102.362 357.182 100.481C359.105 98.4955 360.601 96.3532 361.669 94.0541L368.72 95.9351C367.438 98.8613 365.622 101.578 363.272 104.086C361.028 106.49 358.357 108.58 355.259 110.357C352.268 112.133 348.956 113.492 345.324 114.432C341.691 115.477 337.952 116 334.106 116ZM366.797 70.5405C366.477 65.7333 365.355 61.3441 363.432 57.373C361.616 53.4018 359.212 50.0054 356.221 47.1838C353.336 44.2577 349.971 42.0108 346.125 40.4432C342.279 38.7712 338.166 37.9351 333.785 37.9351C329.405 37.9351 325.292 38.7712 321.446 40.4432C317.6 42.0108 314.181 44.2577 311.19 47.1838C308.305 50.0054 305.955 53.4541 304.139 57.5297C302.429 61.5009 301.415 65.8378 301.094 70.5405H366.797Z" fill="black"/>
<path d="M431.536 39.973C423.951 40.182 417.381 42.3766 411.825 46.5567C406.27 50.6324 402.371 56.2757 400.127 63.4865V114.432H392.114V32.9189H399.646V52.9838C402.531 47.236 406.323 42.5856 411.024 39.0324C415.832 35.3748 420.96 33.2847 426.408 32.7622C427.477 32.7622 428.438 32.7622 429.293 32.7622C430.148 32.6577 430.895 32.6054 431.536 32.6054V39.973Z" fill="black"/>
<path d="M487.641 114.432V3.13513H535.075C539.883 3.13513 544.316 4.12793 548.376 6.11351C552.436 8.0991 555.908 10.764 558.792 14.1081C561.677 17.3477 563.921 21.0577 565.523 25.2378C567.232 29.3135 568.087 33.4414 568.087 37.6216C568.087 41.6973 567.446 45.6685 566.164 49.5351C564.882 53.2973 563.066 56.6937 560.716 59.7243C558.365 62.755 555.534 65.2631 552.222 67.2486C548.91 69.2342 545.278 70.5405 541.325 71.1676L569.69 114.432H560.235L532.671 72.4216H495.814V114.432H487.641ZM495.814 65.0541H535.716C539.349 65.0541 542.66 64.2703 545.652 62.7027C548.643 61.1351 551.207 59.0973 553.344 56.5892C555.481 53.9766 557.083 51.0504 558.151 47.8108C559.327 44.4667 559.914 41.0703 559.914 37.6216C559.914 34.0685 559.22 30.6721 557.831 27.4324C556.549 24.0883 554.733 21.1622 552.382 18.6541C550.139 16.1459 547.468 14.1604 544.37 12.6973C541.378 11.1297 538.12 10.3459 534.594 10.3459H495.814V65.0541Z" fill="black"/>
<path d="M625.657 116C619.782 116 614.333 114.903 609.312 112.708C604.291 110.409 599.91 107.326 596.171 103.459C592.539 99.4883 589.654 94.9423 587.518 89.8216C585.488 84.7009 584.473 79.2144 584.473 73.3622C584.473 67.6144 585.488 62.2324 587.518 57.2162C589.654 52.0955 592.539 47.654 596.171 43.8919C599.804 40.0252 604.13 36.9946 609.152 34.8C614.173 32.6054 619.568 31.5081 625.337 31.5081C631.213 31.5081 636.608 32.6577 641.522 34.9568C646.544 37.1513 650.87 40.182 654.503 44.0486C658.135 47.8108 660.966 52.2523 662.996 57.373C665.133 62.3892 666.201 67.7189 666.201 73.3622C666.201 73.8847 666.148 74.564 666.041 75.4C666.041 76.1315 666.041 76.6018 666.041 76.8108H592.806C593.126 81.5135 594.248 85.9027 596.171 89.9784C598.094 93.9496 600.498 97.3982 603.382 100.324C606.374 103.25 609.793 105.55 613.639 107.222C617.485 108.894 621.598 109.73 625.978 109.73C628.863 109.73 631.694 109.364 634.471 108.632C637.356 107.796 639.973 106.699 642.324 105.341C644.781 103.982 646.918 102.362 648.734 100.481C650.657 98.4955 652.152 96.3532 653.221 94.0541L660.272 95.9351C658.99 98.8613 657.174 101.578 654.823 104.086C652.58 106.49 649.909 108.58 646.811 110.357C643.819 112.133 640.507 113.492 636.875 114.432C633.243 115.477 629.504 116 625.657 116ZM658.349 70.5405C658.028 65.7333 656.907 61.3441 654.983 57.373C653.167 53.4018 650.764 50.0054 647.772 47.1838C644.888 44.2577 641.522 42.0108 637.676 40.4432C633.83 38.7712 629.717 37.9351 625.337 37.9351C620.957 37.9351 616.844 38.7712 612.998 40.4432C609.152 42.0108 605.733 44.2577 602.741 47.1838C599.857 50.0054 597.507 53.4541 595.69 57.5297C593.981 61.5009 592.966 65.8378 592.646 70.5405H658.349Z" fill="black"/>
<path d="M720.382 110.514C719.955 110.723 719.207 111.141 718.139 111.768C717.177 112.29 715.895 112.813 714.293 113.335C712.797 113.858 711.088 114.328 709.165 114.746C707.242 115.164 705.159 115.373 702.915 115.373C700.671 115.373 698.535 115.059 696.505 114.432C694.582 113.805 692.873 112.865 691.377 111.611C689.881 110.357 688.653 108.841 687.691 107.065C686.836 105.288 686.409 103.198 686.409 100.795V39.3459H674.711V32.9189H686.409V5.01622H694.422V32.9189H713.972V39.3459H694.422V98.9135C694.422 101.944 695.49 104.243 697.627 105.811C699.763 107.274 702.221 108.005 704.998 108.005C708.31 108.005 711.141 107.483 713.492 106.438C715.949 105.288 717.444 104.557 717.979 104.243L720.382 110.514Z" fill="black"/>
<path d="M754.574 116C750.728 116 747.095 115.373 743.677 114.119C740.365 112.76 737.427 110.984 734.863 108.789C732.405 106.49 730.482 103.825 729.094 100.795C727.705 97.6595 727.01 94.3153 727.01 90.7622C727.01 87.209 727.865 83.9694 729.574 81.0432C731.284 78.1171 733.687 75.609 736.786 73.5189C739.884 71.3243 743.516 69.6523 747.683 68.5027C751.956 67.2487 756.657 66.6216 761.785 66.6216C766.272 66.6216 770.812 67.0396 775.406 67.8757C780 68.6072 784.113 69.6522 787.746 71.0108V63.0162C787.746 55.2829 785.502 49.1694 781.015 44.6757C776.528 40.0775 770.439 37.7784 762.746 37.7784C758.58 37.7784 754.2 38.6144 749.606 40.2865C745.119 41.9586 740.578 44.3622 735.984 47.4973L732.779 42.1676C743.57 35.0613 753.719 31.5081 763.227 31.5081C773.27 31.5081 781.175 34.382 786.944 40.1297C792.82 45.773 795.758 53.6108 795.758 63.6432V103.459C795.758 106.072 796.88 107.378 799.124 107.378V114.432C798.589 114.537 798.055 114.589 797.521 114.589C797.094 114.589 796.666 114.589 796.239 114.589C794.316 114.589 792.553 113.962 790.951 112.708C789.348 111.35 788.547 109.625 788.547 107.535V100.795C784.701 105.706 779.787 109.468 773.804 112.081C767.928 114.694 761.518 116 754.574 116ZM756.176 109.73C762.373 109.73 768.088 108.632 773.323 106.438C778.558 104.139 782.457 101.056 785.021 97.1892C786.838 95.0991 787.746 93.009 787.746 90.9189V76.4973C779.626 73.5712 771.293 72.1081 762.746 72.1081C754.413 72.1081 747.683 73.7802 742.555 77.1243C737.427 80.4685 734.863 84.8577 734.863 90.2919C734.863 93.009 735.397 95.5694 736.465 97.973C737.534 100.377 739.029 102.467 740.952 104.243C742.875 105.915 745.119 107.274 747.683 108.319C750.354 109.259 753.185 109.73 756.176 109.73Z" fill="black"/>
<path d="M820.287 114.432V32.9189H828.299V114.432H820.287ZM820.287 14.4216V0H828.299V14.4216H820.287Z" fill="black"/>
<path d="M853.475 0H861.648V98.2865C861.648 101.317 862.503 103.721 864.212 105.497C866.028 107.274 868.485 108.162 871.584 108.162C872.759 108.162 874.148 108.058 875.75 107.849C877.459 107.535 879.009 107.117 880.397 106.595L882 112.865C880.184 113.596 877.94 114.171 875.269 114.589C872.599 115.112 870.302 115.373 868.379 115.373C863.892 115.373 860.259 114.067 857.481 111.454C854.811 108.737 853.475 105.132 853.475 100.638V0Z" fill="black"/>
</svg>
