<svg width="156" height="14" viewBox="0 0 156 14" fill="none" xmlns="http://www.w3.org/2000/svg">
<path fill-rule="evenodd" clip-rule="evenodd" d="M144.542 13.9998V13.4972C145.451 13.4972 145.981 13.3383 146.132 13.0186V0.981552C145.981 0.662477 145.451 0.50294 144.542 0.50294V0.000398843H149.923V0.50294C149.015 0.50294 148.485 0.662477 148.334 0.981552V13.1861H153.91C154.318 13.0112 154.685 12.5081 155.011 11.6785H155.5L154.914 13.9998H144.542ZM4.24235 7.06008V13.1863H6.33076C8.62357 13.1863 9.77027 12.1015 9.77027 9.93175C9.77027 9.18193 9.48375 8.51586 8.91069 7.93298C8.33705 7.35124 7.37904 7.06008 6.03607 7.06008H4.24235ZM4.24235 0.814209V6.3416H5.25045C7.54618 6.3416 8.69404 5.33366 8.69404 3.31609C8.69404 1.64836 7.44776 0.814209 4.95577 0.814209H4.24235ZM0.5 13.9999V13.4974C1.38055 13.4974 1.89421 13.3384 2.04097 13.0188V0.980583C1.89421 0.662079 1.38055 0.502542 0.5 0.502542V0H4.99246C7.02553 0 8.55835 0.326481 9.5909 0.978304C10.624 1.6307 11.14 2.4016 11.14 3.29216C11.14 4.91659 10.2758 6.01569 8.5467 6.58945C9.76969 6.8618 10.6869 7.30737 11.2984 7.92443C11.9105 8.5415 12.2163 9.20244 12.2163 9.90782C12.2163 11.1203 11.7241 12.1054 10.7399 12.8632C9.75572 13.621 8.2957 13.9999 6.35988 13.9999H0.5ZM13.9289 13.9998V13.4972C14.8374 13.4972 15.3674 13.3383 15.5188 13.0186V0.981552C15.3674 0.662477 14.8374 0.50294 13.9289 0.50294V0.000398843H23.8351V2.32166H23.3215C23.3215 1.46016 23.1549 0.957621 22.8218 0.814038H17.7202V6.31807H21.1661C21.494 6.17448 21.6582 5.67194 21.6582 4.81044H22.1719V8.63933H21.6582C21.6582 7.77783 21.494 7.27529 21.1661 7.1317H17.7202V13.1861H23.3459C23.7536 13.0112 24.1205 12.5081 24.4466 11.6785H24.9358L24.3488 13.9998H13.9289ZM25.7914 0.00022791H38.0458V2.32149H37.5321C37.5321 1.46056 37.3679 0.95802 37.04 0.814437H33.0071V13.019C33.1585 13.3381 33.6884 13.4971 34.5969 13.4971V13.9996H29.2158V13.4971C30.1243 13.4971 30.6542 13.3381 30.8057 13.019V0.814437H26.7943C26.4681 0.95802 26.3051 1.46056 26.3051 2.32149H25.7914V0.00022791ZM38.9506 0.00022791H51.205V2.32149H50.6913C50.6913 1.46056 50.5271 0.95802 50.1992 0.814437H46.1663V13.019C46.3177 13.3381 46.8476 13.4971 47.7562 13.4971V13.9996H42.375V13.4971C43.2835 13.4971 43.8135 13.3381 43.9649 13.019V0.814437H39.9535C39.6273 0.95802 39.4643 1.46056 39.4643 2.32149H38.9506V0.00022791ZM52.6482 13.9998V13.4972C53.5567 13.4972 54.0866 13.3383 54.2381 13.0186V0.981552C54.0866 0.662477 53.5567 0.50294 52.6482 0.50294V0.000398843H62.5544V2.32166H62.0407C62.0407 1.46016 61.8742 0.957621 61.5411 0.814038H56.4394V6.31807H59.8854C60.2133 6.17448 60.3775 5.67194 60.3775 4.81044H60.8911V8.63933H60.3775C60.3775 7.77783 60.2133 7.27529 59.8854 7.1317H56.4394V13.1861H62.0652C62.4729 13.0112 62.8398 12.5081 63.1659 11.6785H63.6551L63.0681 13.9998H52.6482ZM68.8401 0.814266V6.82083H70.8796C72.1894 6.82083 73.0903 6.57298 73.5818 6.07842C74.0733 5.58442 74.3191 4.74685 74.3191 3.56628C74.3191 2.68883 74.0448 2.01079 73.4962 1.53218C72.947 1.05357 71.9768 0.814266 70.5843 0.814266H68.8401ZM65.0488 14V13.4975C65.9574 13.4975 66.4873 13.3379 66.6387 13.0188V0.981779C66.4873 0.662136 65.9574 0.502599 65.0488 0.502599V5.69775e-05H70.5884C72.6145 5.69775e-05 74.1508 0.359015 75.1962 1.0775C76.2415 1.79542 76.7651 2.61703 76.7651 3.54235C76.7651 4.4198 76.496 5.18957 75.9568 5.85165C75.4181 6.51373 74.6185 6.99632 73.5574 7.29945L76.8105 12.9949C76.9736 13.3299 77.5117 13.4975 78.4249 13.4975V14H77.3731C76.2316 14 75.4897 13.9362 75.1473 13.8086C74.8048 13.6809 74.4624 13.3299 74.1199 12.7556L71.1498 7.63447H68.8401V13.0188C68.9915 13.3379 69.5209 13.4975 70.43 13.4975V14H65.0488ZM88.9216 0.814266V6.82083H90.9611C92.2708 6.82083 93.1718 6.57298 93.6633 6.07842C94.1542 5.58442 94.4 4.74685 94.4 3.56628C94.4 2.68883 94.1263 2.01079 93.5777 1.53218C93.0285 1.05357 92.0583 0.814266 90.6658 0.814266H88.9216ZM85.1303 14V13.4975C86.0388 13.4975 86.5688 13.3379 86.7202 13.0188V0.981779C86.5688 0.662136 86.0388 0.502599 85.1303 0.502599V5.69775e-05H90.6699C92.6954 5.69775e-05 94.2317 0.359015 95.2782 1.0775C96.3236 1.79542 96.8466 2.61703 96.8466 3.54235C96.8466 4.4198 96.5775 5.18957 96.0382 5.85165C95.4989 6.51373 94.7005 6.99632 93.6394 7.29945L96.8926 12.9949C97.055 13.3299 97.5932 13.4975 98.5063 13.4975V14H97.454C96.3131 14 95.5717 13.9362 95.2293 13.8086C94.8857 13.6809 94.5433 13.3299 94.2008 12.7556L91.2313 7.63447H88.9216V13.0188C89.073 13.3379 89.6024 13.4975 90.5109 13.4975V14H85.1303ZM99.3412 13.9998V13.4972C100.25 13.4972 100.78 13.3383 100.931 13.0186V0.981552C100.78 0.662477 100.25 0.50294 99.3412 0.50294V0.000398843H109.248V2.32166H108.734C108.734 1.46016 108.567 0.957621 108.234 0.814038H103.133V6.31807H106.578C106.906 6.17448 107.071 5.67194 107.071 4.81044H107.584V8.63933H107.071C107.071 7.77783 106.906 7.27529 106.578 7.1317H103.133V13.1861H108.758C109.166 13.0112 109.533 12.5081 109.86 11.6785H110.348L109.762 13.9998H99.3412ZM111.204 0.00022791H123.458V2.32149H122.944C122.944 1.46056 122.781 0.95802 122.452 0.814437H118.42V13.019C118.571 13.3381 119.101 13.4971 120.009 13.4971V13.9996H114.628V13.4971C115.537 13.4971 116.067 13.3381 116.218 13.019V0.814437H112.207C111.881 0.95802 111.717 1.46056 111.717 2.32149H111.204V0.00022791ZM128.717 3.18293L126.687 8.75875H130.796L128.717 3.18293ZM131.041 13.9995V13.4976C131.79 13.4976 132.264 13.4024 132.459 13.2121L131.09 9.57296H126.393L125.122 13.0691C125.284 13.3551 125.79 13.4976 126.638 13.4976V13.9995H122.627V13.4976C123.539 13.4976 124.053 13.3301 124.168 12.995L128.913 0.000170933H130.087L134.832 12.995C134.946 13.3301 135.468 13.4976 136.398 13.4976V13.9995H131.041ZM137.155 13.9998V13.4972C138.064 13.4972 138.594 13.3383 138.745 13.0186V0.981552C138.594 0.662477 138.064 0.50294 137.155 0.50294V0.000398843H142.537V0.50294C141.628 0.50294 141.099 0.662477 140.947 0.981552V13.0186C141.099 13.3383 141.628 13.4972 142.537 13.4972V13.9998H137.155Z" fill="white"/>
</svg>
