<?xml version="1.0" encoding="utf-8"?>
<!-- Generator: Adobe Illustrator 18.1.1, SVG Export Plug-In . SVG Version: 6.00 Build 0)  -->
<svg version="1.1" id="Calque_1" xmlns="http://www.w3.org/2000/svg" xmlns:xlink="http://www.w3.org/1999/xlink" x="0px" y="0px"
	 viewBox="0 0 157.1 34.3" enable-background="new 0 0 157.1 34.3" xml:space="preserve">
<path d="M18,7.3c-0.6-0.7-1.2-1.2-2-1.5c-0.8-0.4-1.7-0.5-2.8-0.5c-1.1,0-2,0.2-2.9,0.6c-0.9,0.4-1.7,1-2.3,1.7
	c-0.7,0.7-1.2,1.6-1.5,2.6s-0.6,2.1-0.6,3.3c0,1.2,0.2,2.3,0.6,3.3c0.4,1,0.9,1.9,1.5,2.6c0.6,0.7,1.4,1.3,2.3,1.7
	c0.9,0.4,1.8,0.6,2.8,0.6c1.2,0,2.2-0.2,3.1-0.7c0.9-0.5,1.6-1.2,2.2-2l4.7,3.5c-1.1,1.5-2.4,2.6-4.1,3.3c-1.7,0.7-3.4,1.1-5.1,1.1
	c-2,0-3.8-0.3-5.5-0.9c-1.7-0.6-3.1-1.5-4.4-2.7C2.7,22,1.7,20.6,1,18.9c-0.7-1.7-1-3.5-1-5.5c0-2,0.3-3.9,1-5.5
	c0.7-1.7,1.6-3.1,2.9-4.2c1.2-1.2,2.7-2.1,4.4-2.7C9.9,0.3,11.8,0,13.8,0c0.7,0,1.5,0.1,2.3,0.2c0.8,0.1,1.5,0.3,2.3,0.6
	c0.8,0.3,1.5,0.7,2.2,1.2c0.7,0.5,1.3,1.1,1.9,1.8L18,7.3z"/>
<path d="M22.5,17.4c0-1.4,0.3-2.7,0.8-3.8c0.5-1.1,1.2-2.1,2.1-2.9c0.9-0.8,1.9-1.4,3.1-1.9c1.2-0.4,2.5-0.6,3.8-0.6
	c1.3,0,2.6,0.2,3.8,0.6c1.2,0.4,2.2,1,3.1,1.9c0.9,0.8,1.6,1.8,2.1,2.9c0.5,1.1,0.8,2.4,0.8,3.8c0,1.4-0.3,2.7-0.8,3.8
	c-0.5,1.1-1.2,2.1-2.1,2.9c-0.9,0.8-1.9,1.4-3.1,1.9c-1.2,0.4-2.5,0.6-3.8,0.6c-1.3,0-2.6-0.2-3.8-0.6c-1.2-0.4-2.2-1-3.1-1.9
	c-0.9-0.8-1.6-1.8-2.1-2.9C22.8,20,22.5,18.8,22.5,17.4z M27.9,17.4c0,1.3,0.4,2.4,1.1,3.2c0.8,0.8,1.8,1.2,3.2,1.2
	c1.4,0,2.4-0.4,3.2-1.2c0.8-0.8,1.1-1.9,1.1-3.2c0-1.3-0.4-2.4-1.1-3.2c-0.8-0.8-1.8-1.2-3.2-1.2c-1.4,0-2.4,0.4-3.2,1.2
	C28.3,15,27.9,16.1,27.9,17.4z"/>
<path d="M43,8.6h5.2V11h0.1c0.2-0.3,0.4-0.7,0.7-1c0.3-0.3,0.7-0.6,1.1-0.9c0.4-0.3,0.9-0.5,1.5-0.6c0.6-0.2,1.2-0.3,1.8-0.3
	c1.2,0,2.3,0.3,3.3,0.8c0.9,0.5,1.7,1.3,2.1,2.4c0.6-1.1,1.4-1.9,2.3-2.4c0.9-0.5,2-0.7,3.3-0.7c1.2,0,2.2,0.2,3,0.6
	c0.8,0.4,1.4,0.9,1.9,1.6c0.5,0.7,0.8,1.5,1,2.4c0.2,0.9,0.3,1.9,0.3,3v10.3h-5.4V15.9c0-0.8-0.2-1.5-0.5-2.1
	c-0.3-0.6-1-0.9-1.9-0.9c-0.6,0-1.1,0.1-1.6,0.3c-0.4,0.2-0.8,0.5-1,0.8c-0.3,0.4-0.4,0.8-0.5,1.3c-0.1,0.5-0.2,1-0.2,1.5v9.3H54
	v-9.3c0-0.3,0-0.7,0-1.2c0-0.5-0.1-0.9-0.3-1.3c-0.1-0.4-0.4-0.8-0.7-1c-0.3-0.3-0.8-0.4-1.4-0.4c-0.7,0-1.3,0.1-1.7,0.4
	c-0.4,0.3-0.8,0.6-1,1c-0.2,0.4-0.4,0.9-0.5,1.4c-0.1,0.5-0.1,1.1-0.1,1.7v8.7H43V8.6z"/>
<path d="M71.9,8.6h5v2.3H77c0.2-0.3,0.5-0.6,0.8-1c0.3-0.3,0.8-0.6,1.2-0.9c0.5-0.3,1-0.5,1.5-0.6c0.6-0.2,1.1-0.3,1.8-0.3
	c1.3,0,2.5,0.2,3.5,0.7c1.1,0.4,2,1.1,2.7,1.9c0.8,0.8,1.3,1.8,1.7,2.9c0.4,1.1,0.6,2.3,0.6,3.6c0,1.2-0.2,2.4-0.6,3.5
	c-0.4,1.1-0.9,2.1-1.6,3c-0.7,0.9-1.5,1.6-2.5,2.1c-1,0.5-2.1,0.8-3.3,0.8c-1.1,0-2.2-0.2-3.2-0.5s-1.8-0.9-2.4-1.8h-0.1v10.1h-5.4
	V8.6z M76.9,17.4c0,1.3,0.4,2.4,1.1,3.2c0.8,0.8,1.8,1.2,3.2,1.2c1.4,0,2.4-0.4,3.2-1.2c0.8-0.8,1.1-1.9,1.1-3.2
	c0-1.3-0.4-2.4-1.1-3.2c-0.8-0.8-1.8-1.2-3.2-1.2c-1.4,0-2.4,0.4-3.2,1.2C77.3,15,76.9,16.1,76.9,17.4z"/>
<path d="M91.3,17.4c0-1.4,0.3-2.7,0.8-3.8c0.5-1.1,1.2-2.1,2.1-2.9C95,9.9,96,9.3,97.2,8.9c1.2-0.4,2.5-0.6,3.8-0.6
	c1.3,0,2.6,0.2,3.8,0.6c1.2,0.4,2.2,1,3.1,1.9c0.9,0.8,1.6,1.8,2.1,2.9c0.5,1.1,0.8,2.4,0.8,3.8c0,1.4-0.3,2.7-0.8,3.8
	c-0.5,1.1-1.2,2.1-2.1,2.9c-0.9,0.8-1.9,1.4-3.1,1.9c-1.2,0.4-2.5,0.6-3.8,0.6c-1.3,0-2.6-0.2-3.8-0.6c-1.2-0.4-2.2-1-3.1-1.9
	c-0.9-0.8-1.6-1.8-2.1-2.9C91.5,20,91.3,18.8,91.3,17.4z M96.7,17.4c0,1.3,0.4,2.4,1.1,3.2c0.8,0.8,1.8,1.2,3.2,1.2
	c1.4,0,2.4-0.4,3.2-1.2c0.8-0.8,1.1-1.9,1.1-3.2c0-1.3-0.4-2.4-1.1-3.2c-0.8-0.8-1.8-1.2-3.2-1.2c-1.4,0-2.4,0.4-3.2,1.2
	C97.1,15,96.7,16.1,96.7,17.4z"/>
<path d="M121.6,13.8c-0.8-1-1.8-1.5-3.1-1.5c-0.5,0-0.9,0.1-1.3,0.3c-0.4,0.2-0.6,0.6-0.6,1.1c0,0.4,0.2,0.8,0.7,1
	c0.4,0.2,1,0.4,1.7,0.5c0.7,0.2,1.4,0.3,2.2,0.5c0.8,0.2,1.5,0.5,2.2,0.8c0.7,0.4,1.2,0.9,1.7,1.6c0.4,0.7,0.7,1.5,0.7,2.6
	c0,1.1-0.2,2.1-0.7,2.8c-0.5,0.7-1.1,1.3-1.9,1.8c-0.8,0.4-1.6,0.8-2.6,0.9c-1,0.2-1.9,0.3-2.8,0.3c-1.2,0-2.5-0.2-3.7-0.5
	c-1.2-0.3-2.3-1-3.2-1.9l3.3-3.6c0.5,0.6,1.1,1.1,1.7,1.4c0.6,0.3,1.3,0.5,2.1,0.5c0.6,0,1.2-0.1,1.7-0.3c0.5-0.2,0.8-0.5,0.8-1
	c0-0.5-0.2-0.8-0.7-1c-0.4-0.2-1-0.4-1.7-0.6c-0.7-0.2-1.4-0.3-2.2-0.5c-0.8-0.2-1.5-0.4-2.2-0.8c-0.7-0.4-1.2-0.9-1.7-1.5
	c-0.4-0.7-0.7-1.5-0.7-2.6c0-1,0.2-1.9,0.6-2.7c0.4-0.7,1-1.4,1.7-1.8c0.7-0.5,1.5-0.8,2.4-1.1c0.9-0.2,1.8-0.3,2.7-0.3
	c1.2,0,2.3,0.2,3.5,0.5c1.2,0.3,2.2,0.9,3,1.8L121.6,13.8z"/>
<path d="M142.8,23.1c-0.9,1.1-2,2-3.3,2.6c-1.3,0.6-2.7,0.9-4.1,0.9c-1.3,0-2.6-0.2-3.8-0.6c-1.2-0.4-2.2-1-3.1-1.9
	c-0.9-0.8-1.6-1.8-2.1-2.9c-0.5-1.1-0.8-2.4-0.8-3.8c0-1.4,0.3-2.7,0.8-3.8c0.5-1.1,1.2-2.1,2.1-2.9c0.9-0.8,1.9-1.4,3.1-1.9
	c1.2-0.4,2.5-0.6,3.8-0.6c1.2,0,2.4,0.2,3.4,0.6c1,0.4,1.9,1,2.6,1.9c0.7,0.8,1.3,1.8,1.6,2.9c0.4,1.1,0.6,2.4,0.6,3.8v1.7h-12.5
	c0.2,1,0.7,1.9,1.4,2.5c0.7,0.6,1.6,0.9,2.7,0.9c0.9,0,1.6-0.2,2.3-0.6c0.6-0.4,1.1-0.9,1.6-1.5L142.8,23.1z M138.2,15.4
	c0-0.9-0.3-1.7-0.9-2.3c-0.6-0.6-1.4-1-2.4-1c-0.6,0-1.1,0.1-1.6,0.3c-0.5,0.2-0.8,0.4-1.2,0.7c-0.3,0.3-0.6,0.6-0.8,1
	c-0.2,0.4-0.3,0.8-0.3,1.2H138.2z"/>
<path d="M144.8,8.6h5.4v2.8h0.1c0.6-1.1,1.3-1.9,2.1-2.4c0.8-0.5,1.8-0.8,3-0.8c0.3,0,0.6,0,0.9,0c0.3,0,0.6,0.1,0.9,0.1v4.9
	c-0.4-0.1-0.8-0.2-1.1-0.3c-0.4-0.1-0.8-0.1-1.2-0.1c-1,0-1.8,0.1-2.4,0.4c-0.6,0.3-1.1,0.7-1.4,1.2c-0.3,0.5-0.5,1.1-0.6,1.9
	c-0.1,0.7-0.1,1.5-0.1,2.4v7.3h-5.4V8.6z"/>
</svg>
