<?xml version="1.0" standalone="no"?>
<!DOCTYPE svg PUBLIC "-//W3C//DTD SVG 20010904//EN"
 "http://www.w3.org/TR/2001/REC-SVG-20010904/DTD/svg10.dtd">
<svg version="1.0" xmlns="http://www.w3.org/2000/svg"
 width="261.000000pt" height="261.000000pt" viewBox="0 0 261.000000 261.000000"
 preserveAspectRatio="xMidYMid meet">
<metadata>
Created by potrace 1.14, written by Peter Selinger 2001-2017
</metadata>
<g transform="translate(0.000000,261.000000) scale(0.100000,-0.100000)"
fill="#000000" stroke="none">
<path d="M1871 2305 c-166 -36 -282 -131 -332 -271 -20 -57 -21 -75 -21 -664
-1 -449 3 -617 12 -650 57 -209 250 -326 520 -315 235 9 388 128 445 346 14
53 17 120 19 382 0 203 -3 321 -9 326 -5 4 -116 7 -245 7 l-235 -1 -1 -132
c-1 -93 2 -133 10 -134 6 -1 43 -3 81 -4 39 -1 76 -3 83 -4 19 -2 17 -321 -3
-388 -15 -50 -77 -121 -108 -124 -6 -1 -28 -3 -47 -5 -66 -8 -136 30 -167 89
-15 29 -17 87 -18 582 -1 303 3 566 8 585 24 94 135 145 223 104 57 -27 83
-84 86 -189 l3 -90 168 0 c161 0 167 0 168 20 12 211 -32 339 -151 438 -110
93 -310 130 -489 92z"/>
<path d="M264 1362 l1 -937 250 0 c325 0 382 6 480 54 171 84 267 276 260 514
-7 192 -83 332 -227 416 l-48 27 45 32 c115 81 176 264 149 450 -28 197 -144
322 -343 368 -14 4 -148 8 -297 10 l-271 3 1 -937z m528 649 c30 -11 76 -67
84 -102 3 -13 7 -62 8 -108 4 -134 -36 -188 -149 -207 -51 -8 -124 -9 -132 -1
-7 8 -8 411 0 424 8 13 152 8 189 -6z m-96 -715 c113 -8 177 -54 214 -152 24
-66 33 -191 18 -253 -35 -142 -139 -205 -318 -192 -13 1 -15 40 -14 291 1 159
4 296 7 304 4 9 12 14 19 11 7 -2 40 -6 74 -9z"/>
<path d="M648 1969 c-13 -37 -2 -68 31 -91 51 -34 73 -79 79 -159 6 -82 23
-90 65 -29 12 18 17 45 17 100 0 94 -14 146 -45 166 -34 22 -140 31 -147 13z"/>
<path d="M644 1205 c2 -40 6 -48 31 -61 43 -22 74 -54 97 -98 26 -51 29 -66
35 -173 3 -51 8 -93 12 -93 12 1 39 46 55 93 30 89 12 242 -36 309 -27 39 -91
68 -149 68 l-47 0 2 -45z"/>
<path d="M173 2204 l-36 -36 0 -929 c0 -511 3 -932 6 -936 11 -11 562 -4 614
7 53 12 166 65 183 85 9 10 -3 10 -47 -2 -46 -13 -121 -16 -358 -18 -165 -1
-305 0 -310 2 -7 2 -10 318 -10 933 0 512 -1 930 -3 930 -1 0 -19 -16 -39 -36z"/>
<path d="M1457 1993 c-14 -21 -34 -63 -44 -93 -17 -51 -18 -101 -18 -665 0
-564 1 -614 18 -665 61 -184 231 -292 461 -293 136 -2 214 17 309 73 47 28 42
35 -13 20 -50 -13 -193 -17 -267 -7 -211 29 -368 160 -419 351 -10 38 -13 183
-13 635 0 322 4 606 8 631 5 25 8 46 7 48 -2 1 -15 -15 -29 -35z"/>
<path d="M1958 1984 c-24 -12 -48 -42 -48 -58 0 -2 13 -7 28 -11 34 -7 86 -58
101 -98 6 -16 11 -64 11 -108 l0 -79 28 -1 c15 0 91 -1 170 -2 l143 -2 -3 40
-3 40 -127 0 -128 -1 -1 26 c0 14 0 60 0 104 0 84 -13 124 -51 150 -28 20 -84
20 -120 0z"/>
<path d="M1906 1321 c-2 -9 -5 -69 -5 -133 0 -104 2 -118 17 -119 9 -1 51 -1
93 -1 l76 0 -1 -169 c-1 -93 2 -169 5 -169 11 0 48 46 60 75 7 18 12 91 13
186 l2 155 -93 -1 -93 -1 -1 35 c-1 20 -1 54 0 76 1 68 -5 81 -39 81 -19 0
-31 -5 -34 -15z"/>
</g>
</svg>
